<svg xmlns="http://www.w3.org/2000/svg" version="1.1" xmlns:xlink="http://www.w3.org/1999/xlink" xmlns:svgjs="http://svgjs.dev/svgjs" width="1000" height="1000" viewBox="0 0 1000 1000"><rect width="1000" height="1000" fill="#000000"></rect><g transform="matrix(0.7,0,0,0.7,149.57576327968752,282.1265587044535)"><svg viewBox="0 0 396 247" data-background-color="#0074d9" preserveAspectRatio="xMidYMid meet" height="623" width="1000" xmlns="http://www.w3.org/2000/svg" xmlns:xlink="http://www.w3.org/1999/xlink"><g id="tight-bounds" transform="matrix(1,0,0,1,0.2399967732053483,-0.09999999999999432)"><svg viewBox="0 0 395.52 247.2" height="247.2" width="395.52"><g><svg></svg></g><g><svg viewBox="0 0 395.52 247.2" height="247.2" width="395.52"><g><path xmlns="http://www.w3.org/2000/svg" d="M55.039 247.2l55.653-96.394h1.917l-54.641 94.643h279.584l-54.641-94.643 1.917 0 55.653 96.394zM197.76 0l55.653 96.394-1.917 0-53.736-93.073-53.736 93.073-1.917 0z" fill="#ffffff" fill-rule="nonzero" stroke="none" stroke-width="1" stroke-linecap="butt" stroke-linejoin="miter" stroke-miterlimit="10" stroke-dasharray="" stroke-dashoffset="0" font-family="none" font-weight="none" font-size="none" text-anchor="none" style="mix-blend-mode: normal" data-fill-palette-color="tertiary"></path></g><g transform="matrix(1,0,0,1,2.842170943040401e-14,104.16700011010549)"><svg viewBox="0 0 395.5199999999999 38.865999779789" height="38.865999779789" width="395.5199999999999"><g><svg viewBox="0 0 395.5199999999999 38.865999779789" height="38.865999779789" width="395.5199999999999"><g><svg viewBox="0 0 514.3252487274478 50.54046572557876" height="38.865999779789" width="395.5199999999999"><g transform="matrix(1,0,0,1,118.80524872744783,6.984970299265953)"><svg viewBox="0 0 395.52 36.57052512704686" height="36.57052512704686" width="395.52"><g id="textblocktransform"><svg viewBox="0 0 395.52 36.57052512704686" height="36.57052512704686" width="395.52" id="textblock"><g><svg viewBox="0 0 395.52 36.57052512704686" height="36.57052512704686" width="395.52"><g transform="matrix(1,0,0,1,0,0)"><svg width="395.52" viewBox="-10.800000190734863 -32 354.17999267578125 32.75" height="36.57052512704686" data-palette-color="#ffffff"><path d="M9.75-16.85L9.6-15.85Q9.5-15.45 9.4-14.75L9.4-14.75-10.25-16.85 9.75-16.85ZM-10.8-12.05L9.05-12.05Q8.9-10.9 8.9-9.95L8.9-9.95-10.8-12.05ZM-9.05-21.65L10.95-21.65 10.35-19.6-9.05-21.65ZM-10.15-7.25L8.95-7.25Q9.15-5.85 9.3-5.15L9.3-5.15-10.15-7.25ZM-6.7-26.45L13-26.45Q12.3-25.15 12-24.45L12-24.45-6.7-26.45ZM-5.35-2.4L10.45-2.4Q11.1-1.25 11.95-0.55L11.95-0.55-5.35-2.4ZM0.2-31.25L17.75-31.25Q16.3-30.35 15.5-29.6L15.5-29.6 0.2-31.25ZM22.15 0.75L22.15 0.75Q15.85 0.75 13.13-1.7 10.4-4.15 10.4-9.25L10.4-9.25Q10.4-11.4 11.1-15.6L11.1-15.6Q12.6-24.2 16.28-28.1 19.95-32 27.9-32L27.9-32Q29.75-32 32.13-31.63 34.5-31.25 35.6-30.7L35.6-30.7 32.8-23.05Q29.85-23.75 27.28-23.75 24.7-23.75 23.6-23.25 22.5-22.75 22.25-21.25L22.25-21.25 19.95-8.15Q21.75-7.75 23.65-7.75L23.65-7.75Q27.7-7.75 31.05-8.95L31.05-8.95 30.25-0.55Q27.05 0.75 22.15 0.75ZM66.8 0L58.4 0 59.95-9.15 54.35-9.15 52.75 0 44.35 0 48.95-26.45 57.4-26.45 55.75-17.3 61.4-17.3 63-26.45 71.45-26.45 66.8 0ZM43.1-2.4L42.7-0.15 21.5-2.4 43.1-2.4ZM44.8-12.05L44.4-9.8 23.2-12.05 44.8-12.05ZM45.65-16.85L45.25-14.6 24.05-16.85 45.65-16.85ZM46.5-21.65L46.1-19.4 24.9-21.65 46.5-21.65ZM47.3-26.45L46.95-24.2 25.75-26.45 47.3-26.45ZM43.95-7.25L43.55-5 22.35-7.25 43.95-7.25ZM101.55-15.55L100.7-10.75 93.25-10.75 92.65-7.35 101.9-7.35 100.59 0 82.95 0 87.55-26.45 105.15-26.45 102.8-18.95 94.65-18.95 94.05-15.55 101.55-15.55ZM81.7-2.4L81.3-0.15 60.1-2.4 81.7-2.4ZM83.4-12.05L83-9.8 61.8-12.05 83.4-12.05ZM84.25-16.85L83.84-14.6 62.65-16.85 84.25-16.85ZM85.09-21.65L84.7-19.4 63.5-21.65 85.09-21.65ZM85.9-26.45L85.55-24.2 64.34-26.45 85.9-26.45ZM82.55-7.25L82.15-5 60.95-7.25 82.55-7.25ZM133.29-8.05L132.49-0.55Q129.79 0.6 124.99 0.6 120.19 0.6 117.92-1.43 115.64-3.45 115.64-7.8L115.64-7.8Q115.64-9.75 116.24-13.2L116.24-13.2Q117.49-20.45 120.57-23.7 123.64-26.95 130.39-26.95L130.39-26.95Q135.24-26.95 137.04-25.85L137.04-25.85 134.49-18.9Q131.99-19.6 129.94-19.6 127.89-19.6 127.07-19.25 126.24-18.9 126.04-17.9L126.04-17.9 124.09-7.2Q125.14-6.95 127.72-6.95 130.29-6.95 133.29-8.05L133.29-8.05ZM94.54-12.05L114.49-12.05Q114.29-10.5 114.24-9.95L114.24-9.95 94.54-12.05ZM95.44-16.85L115.44-16.85 114.99-14.75 95.44-16.85ZM94.74-7.25L114.19-7.25Q114.19-6.45 114.39-5.15L114.39-5.15 94.74-7.25ZM97.44-21.65L117.19-21.65Q116.59-20.35 116.34-19.65L116.34-19.65 97.44-21.65ZM99.09-2.4L115.24-2.4Q115.84-1.2 116.54-0.55L116.54-0.55 99.09-2.4ZM104.14-26.45L121.54-26.45Q120.34-25.75 119.49-24.8L119.49-24.8 104.14-26.45ZM168.44 0L159.29 0 156.94-8.65 156.64-8.65 155.14 0 146.74 0 151.34-26.45 159.79-26.45 158.34-18.35 158.59-18.35 163.74-26.45 172.89-26.45 164.49-13.5 168.44 0ZM145.49-2.4L145.09-0.15 123.89-2.4 145.49-2.4ZM147.19-12.05L146.79-9.8 125.59-12.05 147.19-12.05ZM148.04-16.85L147.64-14.6 126.44-16.85 148.04-16.85ZM148.89-21.65L148.49-19.4 127.29-21.65 148.89-21.65ZM149.69-26.45L149.34-24.2 128.14-26.45 149.69-26.45ZM146.34-7.25L145.94-5 124.74-7.25 146.34-7.25ZM198.59-7.55L198.59-7.55 192.39-7.55 191.09 0 181.59 0 187.09-31.25 202.09-31.25Q210.59-31.25 210.59-23.35L210.59-23.35Q210.59-19.6 209.54-16.57 208.49-13.55 207.21-11.78 205.94-10 203.71-8.78 201.49-7.55 198.59-7.55ZM193.79-15.55L195.99-15.55Q197.69-15.55 198.56-15.93 199.44-16.3 199.69-17.65L199.69-17.65Q200.34-21.35 200.34-21.7L200.34-21.7Q200.34-22.65 199.59-22.95 198.84-23.25 197.34-23.25L197.34-23.25 195.14-23.25 193.79-15.55ZM180.49-2.4L180.09-0.15 158.89-2.4 180.49-2.4ZM182.19-12.05L181.79-9.8 160.59-12.05 182.19-12.05ZM183.84-21.65L183.44-19.4 162.29-21.65 183.84-21.65ZM184.69-26.45L184.29-24.2 163.14-26.45 184.69-26.45ZM181.34-7.25L180.94-5 159.74-7.25 181.34-7.25ZM185.54-31.25L185.14-29 163.99-31.25 185.54-31.25ZM182.99-16.85L182.59-14.6 161.44-16.85 182.99-16.85ZM235.29-26.95L235.29-26.95Q240.69-26.95 242.99-24.88 245.29-22.8 245.29-18.4L245.29-18.4Q245.29-16.25 244.74-13.2L244.74-13.2Q243.49-6 240.34-2.7 237.19 0.6 230.44 0.6L230.44 0.6Q225.14 0.6 222.89-1.48 220.64-3.55 220.64-7.9L220.64-7.9Q220.64-10.15 221.19-13.2L221.19-13.2Q222.44-20.4 225.54-23.68 228.64-26.95 235.29-26.95ZM228.94-7L231.89-7Q233.34-7 234.06-7.35 234.79-7.7 235.04-8.9L235.04-8.9 236.94-19.35 233.89-19.35Q232.49-19.35 231.71-19 230.94-18.65 230.79-17.5L230.79-17.5 228.94-7ZM199.49-12.05L219.44-12.05Q219.24-10.5 219.19-9.95L219.19-9.95 199.49-12.05ZM200.39-16.85L220.39-16.85 219.94-14.75 200.39-16.85ZM199.69-7.25L219.14-7.25Q219.14-6.45 219.34-5.15L219.34-5.15 199.69-7.25ZM202.39-21.65L222.14-21.65Q221.54-20.35 221.29-19.65L221.29-19.65 202.39-21.65ZM204.04-2.4L220.19-2.4Q220.79-1.2 221.49-0.55L221.49-0.55 204.04-2.4ZM209.09-26.45L226.49-26.45Q225.29-25.75 224.44-24.8L224.44-24.8 209.09-26.45ZM266.73 0L257.98 0 262.58-26.45 271.38-26.45 266.73 0ZM256.73-2.4L256.33-0.15 235.13-2.4 256.73-2.4ZM258.43-12.05L258.03-9.8 236.83-12.05 258.43-12.05ZM259.28-16.85L258.88-14.6 237.68-16.85 259.28-16.85ZM260.13-21.65L259.73-19.4 238.53-21.65 260.13-21.65ZM260.93-26.45L260.58-24.2 239.38-26.45 260.93-26.45ZM257.58-7.25L257.18-5 235.98-7.25 257.58-7.25ZM304.73 0L297.93 0 292.78-9.9 292.58-9.9 290.83 0 282.43 0 287.03-26.45 293.83-26.45 299.03-16.6 299.33-16.6 301.03-26.45 309.38-26.45 304.73 0ZM281.18-2.4L280.78-0.15 259.58-2.4 281.18-2.4ZM282.88-12.05L282.48-9.8 261.28-12.05 282.88-12.05ZM283.73-16.85L283.33-14.6 262.13-16.85 283.73-16.85ZM284.58-21.65L284.18-19.4 262.98-21.65 284.58-21.65ZM285.38-26.45L285.03-24.2 263.83-26.45 285.38-26.45ZM282.03-7.25L281.63-5 260.43-7.25 282.03-7.25ZM343.38-26.45L342.03-18.95 336.63-18.95 333.33 0 324.53 0 327.83-18.95 322.28-18.95 323.63-26.45 343.38-26.45ZM323.43-2.4L323.03-0.15 301.83-2.4 323.43-2.4ZM325.13-12.05L324.73-9.8 303.53-12.05 325.13-12.05ZM325.98-16.85L325.58-14.6 304.38-16.85 325.98-16.85ZM321.18-21.65L320.78-19.4 299.58-21.65 321.18-21.65ZM321.98-26.45L321.63-24.2 300.43-26.45 321.98-26.45ZM324.28-7.25L323.88-5 302.68-7.25 324.28-7.25Z" opacity="1" transform="matrix(1,0,0,1,0,0)" fill="#ffffff" class="wordmark-text-0" data-fill-palette-color="primary" id="text-0"></path></svg></g></svg></g></svg></g></svg></g><g><svg viewBox="0 0 110.17182543755511 50.54046572557876" height="50.54046572557876" width="110.17182543755511"><g><svg xmlns="http://www.w3.org/2000/svg" version="1.1" data-icon="task" data-container-transform="translate(0 34)" viewBox="0 35.28099822998047 128 58.71900177001953" x="0" y="0" height="50.54046572557876" width="110.17182543755511" class="icon-icon-0" data-fill-palette-color="accent" id="icon-0"><path d="M58.781 1.281l-31.063 30.969-12.969-13.156-5.688 5.625 15.781 16 2.844 2.844 2.844-2.844 33.906-33.781-5.656-5.656z m-55.281 2.719c-1.967 0-3.5 1.533-3.5 3.5v49c0 1.967 1.533 3.5 3.5 3.5h49c1.967 0 3.5-1.533 3.5-3.5v-36.406l-4 4v31.906h-48v-48h43.188l4-4h-47.688z m64.5 12v4h60v-4h-60z m0 12v4h50v-4h-50z m0 12v4h54v-4h-54z" transform="translate(0 34)" fill="#ffffff" data-fill-palette-color="accent"></path></svg></g></svg></g></svg></g></svg></g></svg></g></svg></g><defs></defs></svg><rect width="395.52" height="247.2" fill="none" stroke="none" visibility="hidden"></rect></g></svg></g></svg>